<svg width="90" height="93" viewBox="0 0 90 93" fill="none" xmlns="http://www.w3.org/2000/svg">
<path fill-rule="evenodd" clip-rule="evenodd" d="M45.2512 55.277V57.7067H43.6676V51.1079C44.3463 50.9734 45.0973 50.9106 45.9208 50.9106C46.1561 50.9106 46.3733 50.9196 46.5543 50.9375C46.7443 50.9555 46.9343 50.9824 47.1334 51.0182C47.3325 51.0541 47.5045 51.1169 47.6492 51.1796C47.794 51.2513 47.9388 51.332 48.0655 51.4486C48.2012 51.5562 48.3098 51.6907 48.3913 51.8431C48.4727 51.9955 48.5451 52.1748 48.5904 52.39C48.6447 52.5962 48.6628 52.8383 48.6628 53.0983C48.6628 53.3583 48.6356 53.5824 48.5994 53.7886C48.5542 53.9949 48.4908 54.1742 48.4094 54.3266C48.3279 54.479 48.2284 54.6135 48.1017 54.73C47.975 54.8466 47.8393 54.9363 47.6945 55.008C47.5497 55.0797 47.3868 55.1425 47.1968 55.1873C47.0067 55.2321 46.8167 55.268 46.6267 55.277C46.4276 55.2949 46.2195 55.3039 45.9751 55.3039C45.767 55.3039 45.5227 55.2949 45.2421 55.277H45.2512ZM45.2512 52.2107V54.0218C45.4141 54.0487 45.6494 54.0576 45.9299 54.0576C46.129 54.0576 46.2919 54.0397 46.4366 54.0128C46.5724 53.9859 46.6991 53.9321 46.7986 53.8604C46.8982 53.7886 46.9796 53.69 47.0339 53.5645C47.0882 53.439 47.1063 53.2776 47.1063 53.0893C47.1063 52.7486 47.0248 52.5065 46.8529 52.3721C46.69 52.2286 46.3823 52.1658 45.957 52.1658C45.7036 52.1658 45.4684 52.1838 45.2512 52.2107ZM53.2688 57.6977C52.9974 57.7515 52.6806 57.7784 52.3277 57.7784C51.9657 57.7784 51.6581 57.7515 51.3866 57.6977C51.1151 57.6439 50.8798 57.5543 50.6717 57.4287C50.4636 57.3032 50.3007 57.1598 50.1649 56.9804C50.0292 56.8011 49.9116 56.586 49.8301 56.317C49.7487 56.057 49.6853 55.7701 49.6491 55.4473C49.6129 55.1335 49.5948 54.7659 49.5948 54.3445C49.5948 53.9231 49.6129 53.5555 49.6491 53.2417C49.6853 52.9279 49.7487 52.6321 49.8301 52.3721C49.9116 52.1121 50.0292 51.8879 50.1649 51.7176C50.3007 51.5382 50.4726 51.3858 50.6717 51.2693C50.8798 51.1438 51.1151 51.0541 51.3866 51.0003C51.6581 50.9465 51.9748 50.9196 52.3277 50.9196C52.6806 50.9196 52.9974 50.9465 53.2688 51.0003C53.5403 51.0541 53.7756 51.1438 53.9837 51.2693C54.1919 51.3948 54.3547 51.5382 54.4995 51.7176C54.6353 51.8969 54.7439 52.1121 54.8344 52.3721C54.9158 52.6321 54.9791 52.919 55.0153 53.2417C55.0515 53.5555 55.0696 53.9231 55.0696 54.3445C55.0696 54.7569 55.0515 55.1245 55.0153 55.4473C54.9791 55.7611 54.9158 56.057 54.8344 56.317C54.7529 56.577 54.6353 56.8011 54.4995 56.9804C54.3638 57.1598 54.1919 57.3032 53.9837 57.4287C53.7756 57.5543 53.5403 57.6439 53.2688 57.6977ZM51.9929 56.4335C52.0924 56.4604 52.201 56.4694 52.3277 56.4694C52.4453 56.4694 52.563 56.4604 52.6625 56.4335C52.7621 56.4066 52.8526 56.3797 52.925 56.3528C52.9974 56.317 53.0697 56.2722 53.124 56.2004C53.1783 56.1287 53.2326 56.0659 53.2688 56.0032C53.305 55.9404 53.3412 55.8597 53.3684 55.7521C53.3955 55.6446 53.4136 55.5459 53.4227 55.4652C53.4317 55.3845 53.4498 55.268 53.4589 55.1245C53.4679 54.9811 53.4679 54.8556 53.4679 54.7569C53.4679 54.6583 53.4679 54.5238 53.4679 54.3445C53.4679 54.1742 53.4679 54.0307 53.4679 53.9321C53.4679 53.8335 53.4589 53.7169 53.4589 53.5645C53.4498 53.4211 53.4408 53.3045 53.4227 53.2238C53.4136 53.1431 53.3865 53.0445 53.3684 52.9369C53.3412 52.8293 53.3141 52.7397 53.2688 52.6859C53.2326 52.6231 53.1783 52.5603 53.124 52.4886C53.0697 52.4169 53.0064 52.3721 52.925 52.3362C52.8526 52.3003 52.7621 52.2734 52.6625 52.2555C52.563 52.2286 52.4544 52.2196 52.3277 52.2196C52.201 52.2196 52.0924 52.2286 51.9929 52.2555C51.8933 52.2824 51.8029 52.3093 51.7305 52.3362C51.6581 52.3721 51.5857 52.4169 51.5314 52.4886C51.4771 52.5603 51.4228 52.6231 51.3866 52.6859C51.3504 52.7486 51.3142 52.8293 51.287 52.9369C51.2599 53.0445 51.2418 53.1431 51.2237 53.2238C51.2146 53.3045 51.1966 53.4211 51.1966 53.5645C51.1875 53.708 51.1875 53.8335 51.1785 53.9321C51.1785 54.0307 51.1785 54.1652 51.1785 54.3445C51.1785 54.5149 51.1785 54.6583 51.1785 54.7569C51.1785 54.8556 51.1875 54.9811 51.1966 55.1245C51.2056 55.268 51.2146 55.3845 51.2237 55.4652C51.2418 55.5459 51.2599 55.6446 51.287 55.7521C51.3142 55.8597 51.3413 55.9404 51.3866 56.0032C51.4228 56.0659 51.468 56.1287 51.5314 56.1915C51.5857 56.2632 51.6581 56.308 51.7305 56.3439C51.8029 56.3797 51.8933 56.4066 51.9929 56.4246V56.4335ZM60.472 56.4335V57.6708C59.6848 57.7067 59.0875 57.7246 58.6803 57.7246C58.4631 57.7246 58.2912 57.7246 58.1464 57.7156C58.0106 57.7067 57.8478 57.6977 57.6577 57.6708C57.4767 57.6439 57.3229 57.617 57.2053 57.5722C57.0876 57.5274 56.9609 57.4646 56.8342 57.3839C56.7076 57.3032 56.608 57.1956 56.5356 57.0791C56.4632 56.9625 56.3999 56.8101 56.3546 56.6308C56.3094 56.4515 56.2822 56.2453 56.2822 56.0211V50.9824H57.8659V55.6535C57.8659 55.8149 57.8749 55.9494 57.893 56.039C57.9111 56.1287 57.9473 56.2094 58.0106 56.2722C58.0649 56.3349 58.1464 56.3797 58.2459 56.3977C58.3455 56.4156 58.4812 56.4246 58.6531 56.4246H60.472V56.4335ZM63.7388 55.1245L65.9288 50.9913H64.2727L62.9515 53.5555L61.6756 50.9913H59.9653L62.1552 55.1245V57.7067H63.7388V55.1245ZM69.0055 55.0797V53.8604H71.5031V56.3797C71.5031 56.568 71.485 56.7294 71.4398 56.8729C71.3945 57.0163 71.3402 57.1329 71.2769 57.2315C71.2135 57.3301 71.114 57.4108 70.9963 57.4825C70.8787 57.5543 70.7611 57.608 70.6434 57.6439C70.5258 57.6798 70.381 57.7156 70.2 57.7336C70.019 57.7515 69.8561 57.7694 69.7023 57.7694C69.5575 57.7784 69.3675 57.7784 69.1412 57.7784C68.8155 57.7784 68.5259 57.7515 68.2725 57.7156C68.0191 57.6708 67.7838 57.608 67.5848 57.5184C67.3857 57.4377 67.2137 57.3211 67.069 57.1777C66.9242 57.0342 66.7975 56.8818 66.707 56.7025C66.6074 56.5232 66.526 56.317 66.4717 56.0749C66.4084 55.8328 66.3722 55.5728 66.345 55.2949C66.3179 55.017 66.3088 54.7032 66.3088 54.3535C66.3088 53.9949 66.3179 53.6811 66.345 53.4031C66.3722 53.1252 66.4174 52.8652 66.4717 52.6231C66.526 52.381 66.6074 52.1658 66.707 51.9955C66.8065 51.8162 66.9242 51.6638 67.069 51.5203C67.2137 51.3858 67.3857 51.2693 67.5848 51.1886C67.7838 51.1079 68.0101 51.0362 68.2635 51.0003C68.5168 50.9555 68.8064 50.9375 69.1322 50.9375C69.9466 50.9375 70.6977 51.0093 71.3583 51.1527L71.2226 52.3721C70.6706 52.2914 70.0552 52.2465 69.3675 52.2465C69.1684 52.2465 68.9874 52.2645 68.8336 52.3003C68.6797 52.3362 68.553 52.39 68.4444 52.4438C68.3449 52.4976 68.2544 52.5872 68.182 52.6948C68.1096 52.8024 68.0553 52.91 68.0191 53.0086C67.9829 53.1072 67.9467 53.2417 67.9286 53.4121C67.9105 53.5824 67.8924 53.7259 67.8924 53.8604C67.8924 53.9859 67.8834 54.1562 67.8834 54.3714C67.8834 54.5866 67.8834 54.7569 67.8924 54.8825C67.9015 55.008 67.9105 55.1604 67.9286 55.3308C67.9467 55.5011 67.9739 55.6356 68.0191 55.7342C68.0553 55.8328 68.1096 55.9404 68.182 56.048C68.2544 56.1556 68.3449 56.2363 68.4444 56.2991C68.544 56.3528 68.6707 56.4066 68.8245 56.4425C68.9784 56.4784 69.1503 56.4963 69.3494 56.4963C69.4942 56.4963 69.6208 56.4873 69.7113 56.4694C69.8018 56.4515 69.8742 56.4156 69.9195 56.3618C69.9647 56.308 70.0009 56.2542 70.01 56.1915C70.0281 56.1287 70.0281 56.039 70.0281 55.9315V55.1156H68.9784L69.0055 55.0797ZM73.8469 57.7156H72.2089L74.1817 52.0045C74.3174 51.6279 74.4803 51.35 74.6703 51.1796C74.8694 51.0093 75.1047 50.9196 75.3943 50.9196C75.9553 50.9196 76.3535 51.2782 76.5978 52.0045L78.5434 57.7156H76.8603L76.3987 56.1825H74.2812L73.8378 57.7156H73.8469ZM74.6432 54.9632H76.0368L75.3309 52.5872L74.6432 54.9632ZM83.5477 56.4425V57.6798C82.7604 57.7156 82.1631 57.7336 81.7559 57.7336C81.5387 57.7336 81.3668 57.7336 81.222 57.7246C81.0863 57.7156 80.9234 57.7067 80.7333 57.6798C80.5524 57.6529 80.3985 57.626 80.2809 57.5812C80.1632 57.5363 80.0366 57.4736 79.9099 57.3929C79.7832 57.3122 79.6836 57.2046 79.6112 57.088C79.5388 56.9715 79.4755 56.8191 79.4303 56.6397C79.385 56.4604 79.3579 56.2542 79.3579 56.0301V50.9913H80.9415V55.6625C80.9415 55.8239 80.9505 55.9584 80.9686 56.048C80.9867 56.1377 81.0229 56.2184 81.0863 56.2811C81.1406 56.3439 81.222 56.3887 81.3215 56.4066C81.4211 56.4246 81.5568 56.4335 81.7288 56.4335H83.5477V56.4425ZM49.1786 60.4592L47.2873 66.2331C47.1696 66.5917 47.0158 66.8517 46.8348 67.0131C46.6448 67.1745 46.4185 67.2552 46.138 67.2552C45.8484 67.2552 45.6132 67.1835 45.4412 67.031C45.2693 66.8786 45.1154 66.6186 44.9888 66.2421L43.0703 60.4681H44.7625L46.1471 65.3365L47.5497 60.4681H49.1786V60.4592ZM54.2733 67.1655C54.0018 67.2193 53.6851 67.2462 53.3322 67.2462C52.9702 67.2462 52.6625 67.2193 52.3911 67.1655C52.1196 67.1117 51.8843 67.0221 51.6762 66.8965C51.468 66.771 51.3051 66.6276 51.1694 66.4483C51.0337 66.2689 50.916 66.0538 50.8346 65.7848C50.7531 65.5248 50.6898 65.2379 50.6536 64.9151C50.6174 64.6013 50.5993 64.2337 50.5993 63.8123C50.5993 63.3909 50.6174 63.0234 50.6536 62.7096C50.6898 62.3958 50.7531 62.0999 50.8346 61.8399C50.916 61.5799 51.0337 61.3557 51.1694 61.1854C51.3051 61.0061 51.4771 60.8536 51.6762 60.7371C51.8843 60.6116 52.1196 60.5219 52.3911 60.4681C52.6625 60.4143 52.9793 60.3874 53.3322 60.3874C53.6851 60.3874 54.0018 60.4143 54.2733 60.4681C54.5448 60.5219 54.7801 60.6116 54.9882 60.7371C55.1963 60.8626 55.3592 61.0061 55.495 61.1854C55.6307 61.3647 55.7393 61.5799 55.8298 61.8399C55.9112 62.0999 55.9746 62.3868 56.0108 62.7096C56.047 63.0234 56.0651 63.3909 56.0651 63.8123C56.0651 64.2248 56.047 64.5924 56.0108 64.9151C55.9746 65.2289 55.9112 65.5248 55.8298 65.7848C55.7483 66.0448 55.6307 66.2689 55.495 66.4483C55.3592 66.6276 55.1873 66.771 54.9882 66.8965C54.7801 67.0221 54.5448 67.1117 54.2733 67.1655ZM52.9974 65.9014C53.0969 65.9282 53.2055 65.9372 53.3322 65.9372C53.4498 65.9372 53.5675 65.9282 53.667 65.9014C53.7665 65.8745 53.857 65.8476 53.9294 65.8207C54.0018 65.7848 54.0742 65.74 54.1285 65.6682C54.1828 65.5965 54.2371 65.5338 54.2733 65.471C54.3095 65.4082 54.3457 65.3275 54.3728 65.22C54.4 65.1124 54.4181 65.0137 54.4271 64.9331C54.4362 64.8524 54.4543 64.7358 54.4633 64.5924C54.4724 64.4489 54.4724 64.3234 54.4724 64.2248C54.4724 64.1261 54.4724 63.9917 54.4724 63.8123C54.4724 63.642 54.4724 63.4985 54.4724 63.3999C54.4724 63.3013 54.4633 63.1847 54.4633 63.0323C54.4543 62.8889 54.4452 62.7723 54.4271 62.6916C54.4181 62.6109 54.3909 62.5123 54.3728 62.4047C54.3457 62.2971 54.3185 62.2075 54.2733 62.1537C54.2371 62.0909 54.1828 62.0282 54.1285 61.9564C54.0742 61.8847 54.0109 61.8399 53.9294 61.804C53.857 61.7681 53.7665 61.7413 53.667 61.7233C53.5675 61.6964 53.4589 61.6875 53.3322 61.6875C53.2055 61.6875 53.0969 61.6964 52.9974 61.7233C52.8978 61.7502 52.8073 61.7771 52.7349 61.804C52.6625 61.8399 52.5901 61.8847 52.5358 61.9564C52.4815 62.0282 52.4273 62.0909 52.3911 62.1537C52.3549 62.2164 52.3187 62.2971 52.2915 62.4047C52.2644 62.5123 52.2463 62.6109 52.2282 62.6916C52.2191 62.7723 52.201 62.8889 52.201 63.0323C52.192 63.1758 52.192 63.3013 52.1829 63.3999C52.1829 63.4985 52.1829 63.633 52.1829 63.8123C52.1829 63.9827 52.1829 64.1261 52.1829 64.2248C52.1829 64.3234 52.192 64.4489 52.201 64.5924C52.2101 64.7358 52.2191 64.8524 52.2282 64.9331C52.2463 65.0137 52.2644 65.1124 52.2915 65.22C52.3187 65.3275 52.3458 65.4082 52.3911 65.471C52.4273 65.5338 52.4725 65.5965 52.5358 65.6593C52.5901 65.731 52.6625 65.7758 52.7349 65.8117C52.8073 65.8476 52.8978 65.8745 52.9974 65.8924V65.9014ZM60.7164 61.6606C60.6259 61.6606 60.5444 61.6606 60.4811 61.6606C60.4177 61.6606 60.3454 61.6695 60.2458 61.6785C60.1553 61.6875 60.0739 61.6964 60.0105 61.7144C59.9472 61.7323 59.8838 61.7502 59.8114 61.7861C59.7391 61.813 59.6848 61.8488 59.6395 61.8937C59.5943 61.9295 59.5671 61.9833 59.5309 62.0461C59.5038 62.1088 59.4857 62.1806 59.4857 62.2613C59.4857 62.3689 59.5038 62.4585 59.54 62.5302C59.5762 62.6109 59.6124 62.6737 59.6576 62.7185C59.7029 62.7633 59.7753 62.8171 59.8838 62.862C59.9924 62.9068 60.092 62.9427 60.1644 62.9696C60.2458 62.9965 60.3725 63.0323 60.5535 63.0771C60.5716 63.0771 60.5806 63.0861 60.5897 63.0861C60.5987 63.0861 60.6078 63.0951 60.6168 63.0951C61.0783 63.2206 61.4403 63.364 61.7118 63.5434C61.9742 63.7137 62.1733 63.9379 62.3 64.1979C62.4267 64.4579 62.481 64.7986 62.481 65.202C62.481 65.4979 62.4448 65.7669 62.3724 66C62.3 66.2331 62.1914 66.4303 62.0557 66.5827C61.9199 66.7441 61.7389 66.8786 61.5308 66.9772C61.3227 67.0759 61.0783 67.1566 60.8159 67.2014C60.5535 67.2462 60.2549 67.2731 59.9291 67.2731C59.2504 67.2731 58.5717 67.2014 57.893 67.049L58.0468 65.8117C58.7527 65.9193 59.359 65.9731 59.8567 65.9731C60.2006 65.9731 60.4539 65.9193 60.6078 65.8207C60.7707 65.722 60.8521 65.5338 60.8521 65.2738C60.8521 65.202 60.8431 65.1393 60.825 65.0855C60.8069 65.0227 60.7888 64.9779 60.7616 64.9331C60.7345 64.8882 60.6983 64.8434 60.653 64.8075C60.6078 64.7627 60.5535 64.7358 60.5082 64.7089C60.463 64.682 60.3997 64.6551 60.3182 64.6193C60.2368 64.5834 60.1734 64.5565 60.101 64.5386C60.0377 64.5117 59.9472 64.4848 59.8476 64.4579C59.6576 64.4041 59.4947 64.3413 59.3499 64.2965C59.2051 64.2427 59.0694 64.1799 58.9246 64.1082C58.7798 64.0365 58.6622 63.9648 58.5627 63.893C58.4631 63.8213 58.3726 63.7316 58.2821 63.633C58.1916 63.5344 58.1192 63.4268 58.0649 63.3013C58.0106 63.1847 57.9744 63.0502 57.9383 62.8978C57.9111 62.7454 57.893 62.584 57.893 62.4047C57.893 62.1088 57.9292 61.8488 58.0016 61.6247C58.074 61.4006 58.1735 61.2123 58.3093 61.0599C58.436 60.9074 58.6079 60.7819 58.816 60.6923C59.0242 60.5936 59.2504 60.5309 59.5038 60.486C59.7572 60.4412 60.0467 60.4233 60.3725 60.4233C61.0331 60.4233 61.7118 60.504 62.3905 60.6564L62.2457 61.8578C61.6123 61.7502 61.0964 61.6964 60.6983 61.6964L60.7164 61.6606ZM68.9422 60.4592V61.7413H67.3314V67.1745H65.7387V61.7413H64.146V60.4592H68.9422ZM74.2541 67.1655C73.9826 67.2193 73.6659 67.2462 73.3129 67.2462C72.951 67.2462 72.6433 67.2193 72.3718 67.1655C72.1003 67.1117 71.8651 67.0221 71.6569 66.8965C71.4488 66.771 71.2859 66.6276 71.1502 66.4483C71.0144 66.2689 70.8968 66.0538 70.8154 65.7848C70.7339 65.5248 70.6706 65.2379 70.6344 64.9151C70.5982 64.6013 70.5801 64.2337 70.5801 63.8123C70.5801 63.3909 70.5982 63.0234 70.6344 62.7096C70.6706 62.3958 70.7339 62.0999 70.8154 61.8399C70.8968 61.5799 71.0144 61.3557 71.1502 61.1854C71.2859 61.0061 71.4579 60.8536 71.6569 60.7371C71.8651 60.6116 72.1003 60.5219 72.3718 60.4681C72.6433 60.4143 72.96 60.3874 73.3129 60.3874C73.6659 60.3874 73.9826 60.4143 74.2541 60.4681C74.5256 60.5219 74.7608 60.6116 74.969 60.7371C75.1771 60.8626 75.34 61.0061 75.4757 61.1854C75.6115 61.3647 75.7201 61.5799 75.8105 61.8399C75.892 62.0999 75.9553 62.3868 75.9915 62.7096C76.0277 63.0234 76.0458 63.3909 76.0458 63.8123C76.0458 64.2248 76.0277 64.5924 75.9915 64.9151C75.9553 65.2289 75.892 65.5248 75.8105 65.7848C75.7291 66.0448 75.6115 66.2689 75.4757 66.4483C75.34 66.6276 75.168 66.771 74.969 66.8965C74.7608 67.0221 74.5256 67.1117 74.2541 67.1655ZM72.9781 65.9014C73.0777 65.9282 73.1863 65.9372 73.3129 65.9372C73.4306 65.9372 73.5482 65.9282 73.6478 65.9014C73.7473 65.8745 73.8378 65.8476 73.9102 65.8207C73.9826 65.7848 74.055 65.74 74.1093 65.6682C74.1636 65.5965 74.2179 65.5338 74.2541 65.471C74.2903 65.4082 74.3265 65.3275 74.3536 65.22C74.3808 65.1124 74.3989 65.0137 74.4079 64.9331C74.417 64.8524 74.4351 64.7358 74.4441 64.5924C74.4532 64.4489 74.4532 64.3234 74.4532 64.2248C74.4532 64.1261 74.4532 63.9917 74.4532 63.8123C74.4532 63.642 74.4532 63.4985 74.4532 63.3999C74.4532 63.3013 74.4441 63.1847 74.4441 63.0323C74.4351 62.8889 74.426 62.7723 74.4079 62.6916C74.3989 62.6109 74.3717 62.5123 74.3536 62.4047C74.3265 62.2971 74.2993 62.2075 74.2541 62.1537C74.2179 62.0909 74.1636 62.0282 74.1093 61.9564C74.055 61.8847 73.9916 61.8399 73.9102 61.804C73.8378 61.7681 73.7473 61.7413 73.6478 61.7233C73.5482 61.6964 73.4396 61.6875 73.3129 61.6875C73.1863 61.6875 73.0777 61.6964 72.9781 61.7233C72.8786 61.7502 72.7881 61.7771 72.7157 61.804C72.6433 61.8399 72.5709 61.8847 72.5166 61.9564C72.4623 62.0282 72.408 62.0909 72.3718 62.1537C72.3356 62.2164 72.2994 62.2971 72.2723 62.4047C72.2451 62.5123 72.227 62.6109 72.2089 62.6916C72.1999 62.7723 72.1818 62.8889 72.1818 63.0323C72.1727 63.1758 72.1727 63.3013 72.1637 63.3999C72.1637 63.4985 72.1637 63.633 72.1637 63.8123C72.1637 63.9827 72.1637 64.1261 72.1637 64.2248C72.1637 64.3234 72.1727 64.4489 72.1818 64.5924C72.1908 64.7358 72.1999 64.8524 72.2089 64.9331C72.227 65.0137 72.2451 65.1124 72.2723 65.22C72.2994 65.3275 72.3266 65.4082 72.3718 65.471C72.408 65.5338 72.4533 65.5965 72.5166 65.6593C72.5709 65.731 72.6433 65.7758 72.7157 65.8117C72.7881 65.8476 72.8786 65.8745 72.9781 65.8924V65.9014ZM79.7651 60.4592V63.5703L81.774 60.4592H83.6201L81.4392 63.6689L83.6472 67.1835H81.7288L79.7651 63.8841V67.1835H78.1724V60.4592H79.7651Z" fill="#179BD7"/>
<path fill-rule="evenodd" clip-rule="evenodd" d="M8.82506 73.6836H80.5314C82.1603 73.6836 83.4815 75.0016 83.4815 76.6064V85.6528C83.4815 87.2667 82.1512 88.5757 80.5314 88.5757H8.82506C7.19619 88.5757 5.875 87.2577 5.875 85.6528V76.6064C5.875 74.9926 7.20524 73.6836 8.82506 73.6836Z" fill="#179BD7"/>
<path fill-rule="evenodd" clip-rule="evenodd" d="M13.2935 77.3685H9.03125V84.6397H9.73709V77.9692H12.5876V84.6397H13.2935V77.3685ZM16.7774 84.7652C17.981 84.7652 18.7773 84.0659 18.7773 82.7928V81.0355C18.7773 79.7534 17.981 79.063 16.7774 79.063C15.5739 79.063 14.7775 79.7624 14.7775 81.0355V82.7928C14.7775 84.0749 15.5739 84.7652 16.7774 84.7652ZM16.7774 84.1645C15.963 84.1645 15.4653 83.7342 15.4653 82.7928V81.0355C15.4653 80.0941 15.972 79.6637 16.7774 79.6637C17.5919 79.6637 18.0896 80.0941 18.0896 81.0355V82.7928C18.0896 83.7342 17.5828 84.1645 16.7774 84.1645ZM19.4379 84.6846C20.5148 84.6846 20.9129 83.8507 21.0125 82.21C21.0487 81.6183 21.103 80.5783 21.1301 79.7713H22.8766V84.6487H23.5553V79.1886H20.4695C20.4424 80.2107 20.4243 81.1072 20.3519 82.1204C20.2704 83.2142 20.1437 84.0928 19.4379 84.0928V84.6846ZM25.0665 84.6397H25.7633L27.6275 81.2238C27.8175 80.8562 28.0257 80.4796 28.1071 80.2376L28.1342 80.2465C28.1071 80.6858 28.089 81.1341 28.089 81.699V84.6397H28.7677V79.1796H28.0709L26.1525 82.73C26.0348 82.9452 25.8538 83.3218 25.7543 83.5369L25.7271 83.519C25.7633 83.1156 25.7543 82.6942 25.7543 82.2907V79.1706H25.0756V84.6308L25.0665 84.6397ZM33.2561 79.1796H30.2699V84.6397H30.9486V79.7713H33.2561V79.1796ZM35.9438 79.0541C34.8307 79.0541 34.0887 79.6637 34.0434 80.6051H34.7221C34.7674 80.0044 35.2379 79.6458 35.9257 79.6458C36.7039 79.6458 37.1111 80.0762 37.1111 80.8741V81.4569H35.9257C34.6135 81.4569 33.8715 82.0397 33.8715 83.0887C33.8715 84.1466 34.6678 84.7652 35.7718 84.7652C36.4234 84.7652 36.8849 84.4963 37.1564 84.1287L37.2107 84.6397H37.7898V80.8652C37.7898 79.7534 37.093 79.0541 35.9528 79.0541H35.9438ZM35.8623 84.1556C35.0841 84.1556 34.5502 83.8149 34.5502 83.0976C34.5502 82.3983 35.0207 82.0307 35.8985 82.0307H37.1111V83.0976C37.1111 83.7252 36.6315 84.1556 35.8623 84.1556ZM38.5952 84.6756C39.6721 84.6756 40.0702 83.8418 40.1698 82.201C40.206 81.6093 40.2603 80.5693 40.2874 79.7624H42.0339V84.6397H42.7126V79.1796H39.6268C39.5997 80.2017 39.5816 81.0983 39.5092 82.1114C39.4277 83.2052 39.301 84.0839 38.5952 84.0839V84.6756ZM45.9975 81.0983H44.9025V79.1796H44.2238V84.6397H45.9975C47.0834 84.6397 47.9612 83.9045 47.9612 82.8645C47.9612 81.8335 47.0834 81.1072 45.9975 81.1072V81.0983ZM45.9975 84.039H44.9025V81.69H45.9975C46.7214 81.69 47.2825 82.1473 47.2825 82.8555C47.2825 83.5728 46.7214 84.039 45.9975 84.039ZM54.5852 80.8562C55.2187 80.7038 55.6259 80.1479 55.6259 79.2424C55.6259 78.0409 54.8386 77.3506 53.4993 77.3506H51.6261V84.6218H53.6803C55.101 84.6218 55.9517 83.9314 55.9517 82.6404C55.9517 81.6631 55.4268 81.0265 54.5762 80.8562H54.5852ZM53.4993 77.9603C54.4495 77.9603 54.902 78.3637 54.902 79.2513C54.902 80.1479 54.4404 80.6051 53.5174 80.6051H52.332V77.9692H53.4993V77.9603ZM53.6803 84.0301H52.332V81.2059H53.5536C54.5581 81.2059 55.2368 81.7079 55.2368 82.6493C55.2368 83.6087 54.721 84.0301 53.6803 84.0301ZM58.956 84.7563C60.1596 84.7563 60.9559 84.057 60.9559 82.7838V81.0265C60.9559 79.7444 60.1596 79.0541 58.956 79.0541C57.7525 79.0541 56.9561 79.7534 56.9561 81.0265V82.7838C56.9561 84.0659 57.7525 84.7563 58.956 84.7563ZM58.956 84.1556C58.1416 84.1556 57.6439 83.7252 57.6439 82.7838V81.0265C57.6439 80.0851 58.1506 79.6548 58.956 79.6548C59.7705 79.6548 60.2682 80.0851 60.2682 81.0265V82.7838C60.2682 83.7252 59.7614 84.1556 58.956 84.1556ZM64.087 84.7384C65.2724 84.7384 66.0416 84.039 66.0778 82.7928H65.3901C65.3539 83.7073 64.8833 84.1376 64.087 84.1376C63.3178 84.1376 62.8563 83.7073 62.8563 82.7928V80.9907C62.8563 80.0762 63.3268 79.6458 64.087 79.6458C64.8833 79.6458 65.3448 80.0762 65.381 80.9907H66.0687C66.0326 79.7444 65.2815 79.0451 64.087 79.0451C62.9287 79.0451 62.1685 79.7444 62.1685 80.9907V82.7928C62.1685 84.039 62.9377 84.7384 64.087 84.7384ZM70.2857 79.1796H66.6389V79.7534H68.1229V84.6397H68.8016V79.7534H70.2857V79.1796ZM72.7743 84.7652C73.9778 84.7652 74.7741 84.0659 74.7741 82.7928V81.0355C74.7741 79.7534 73.9778 79.063 72.7743 79.063C71.5707 79.063 70.7744 79.7624 70.7744 81.0355V82.7928C70.7744 84.0749 71.5707 84.7652 72.7743 84.7652ZM72.7743 84.1645C71.9598 84.1645 71.4621 83.7342 71.4621 82.7928V81.0355C71.4621 80.0941 71.9689 79.6637 72.7743 79.6637C73.5887 79.6637 74.0864 80.0941 74.0864 81.0355V82.7928C74.0864 83.7342 73.5796 84.1645 72.7743 84.1645ZM79.3712 84.6397H80.2037L77.7242 81.5555L79.9051 79.1886H79.0363L77.697 80.6769C77.3984 81.0086 77.0998 81.3403 76.8012 81.6631V79.1886H76.1225V84.6487H76.8012V82.5597L77.2717 82.0397L79.3621 84.6487L79.3712 84.6397Z" fill="#FEFEFE" stroke="#FEFEFE" stroke-width="0.287999"/>
<path fill-rule="evenodd" clip-rule="evenodd" d="M62.904 32.9252H53.0946V23.3408C53.0946 18.0511 57.4201 13.7565 62.7592 13.7565C68.0983 13.7565 72.4329 18.0511 72.4329 23.3408C72.4329 33.1583 62.904 32.9252 62.904 32.9252ZM77.6724 16.1862C77.0208 14.0703 76.1431 12.5371 75.4825 11.5688C74.9214 10.744 74.5504 10.3316 74.5504 10.3316C74.5504 10.3316 74.2789 10.0088 73.736 9.42602C72.9396 8.58324 71.5189 7.28321 69.2928 6.0818C65.664 4.10038 59.2843 2.98863 53.4294 5.94732C50.5789 7.30114 47.8732 9.68603 46.19 12.6358C44.4978 15.5496 43.7829 18.58 43.4209 21.2518C43.3395 21.8794 43.258 24.3002 43.258 24.3002C43.2399 25.1161 43.258 47.7635 43.258 47.7635C44.6426 47.7187 45.9276 47.4228 47.113 46.858C48.2985 46.2931 49.3301 45.5579 50.226 44.6524C51.1219 43.7469 51.8277 42.6889 52.3345 41.4696C52.8412 40.2592 53.0946 38.9681 53.0946 37.5964V36.7267H59.8906C62.4244 36.7267 65.1663 36.7267 67.9354 35.7674C70.7226 34.8259 73.2473 32.9342 74.9667 30.6569C78.6407 26.0485 78.885 20.0056 77.6724 16.1952V16.1862Z" fill="#77B94C"/>
<path fill-rule="evenodd" clip-rule="evenodd" d="M21.1725 36.7265H30.9819V46.3108C30.9819 51.6006 26.6563 55.8952 21.3172 55.8952C15.9782 55.8952 11.6436 51.6006 11.6436 46.3108C11.6436 36.4934 21.1725 36.7265 21.1725 36.7265ZM6.40407 53.4655C7.05561 55.5814 7.93339 57.1146 8.59399 58.0829C9.15504 58.9077 9.52606 59.3201 9.52606 59.3201C9.52606 59.3201 9.79754 59.6429 10.3405 60.2257C11.1368 61.0684 12.5576 62.3685 14.7837 63.5699C18.4124 65.5513 24.7922 66.6631 30.647 63.7044C33.4976 62.3416 36.2033 59.9657 37.8864 57.0159C39.5877 54.1021 40.2935 51.0716 40.6555 48.3999C40.737 47.7723 40.8184 45.3515 40.8184 45.3515C40.8365 44.5356 40.8184 21.8882 40.8184 21.8882C39.4339 21.933 38.1489 22.2289 36.9634 22.7937C35.778 23.3586 34.7464 24.0938 33.8505 25.0083C32.9546 25.9138 32.2488 26.9807 31.742 28.1911C31.2352 29.4015 30.9819 30.6925 30.9819 32.0643V32.934H24.1859C21.6521 32.934 18.9101 32.934 16.1411 33.8933C13.3539 34.8347 10.8292 36.7265 9.1098 39.0038C5.4358 43.6122 5.19147 49.6551 6.40407 53.4655Z" fill="#179BD7"/>
</svg>
